<svg width="117" height="117" viewBox="0 0 117 117" fill="none" xmlns="http://www.w3.org/2000/svg">
<g filter="url(#filter0_d)">
<path d="M42.8789 55.0938L15.6289 27.8438L10.8125 32.6602L33.2461 55.0938H10.8125V58.5C10.8125 71.1475 15.8367 83.277 24.7798 92.2202C33.723 101.163 45.8525 106.188 58.5 106.188C71.1475 106.188 83.277 101.163 92.2202 92.2202C101.163 83.277 106.188 71.1475 106.188 58.5V55.0938H42.8789ZM58.5 99.375C48.2524 99.3623 38.3822 95.5062 30.8399 88.5688C23.2977 81.6313 18.6319 72.1171 17.7647 61.9062H99.2387C98.3714 72.1177 93.7052 81.6324 86.1622 88.5699C78.6192 95.5075 68.7482 99.3632 58.5 99.375Z" fill="#F2CC8F"/>
<path d="M78.9375 31.25C77.12 31.2526 75.3146 31.5459 73.5897 32.1186C71.0563 28.6907 67.7564 25.9027 63.9534 23.9776C60.1505 22.0525 55.9499 21.0435 51.6875 21.0312C45.6335 21.0136 39.7488 23.0288 34.9764 26.7537L19.0352 10.8125L14.2188 15.6289L34.8266 36.2367L37.2348 33.8285C39.1283 31.9247 41.3807 30.4155 43.8616 29.3882C46.3424 28.3609 49.0024 27.836 51.6875 27.8438C54.7566 27.8522 57.7847 28.5495 60.5485 29.8842C63.3122 31.2189 65.7411 33.157 67.656 35.5555C66.9291 36.1906 66.2568 36.8857 65.6463 37.6333C64.6902 38.8325 63.4755 39.8003 62.093 40.4645C60.7105 41.1286 59.1958 41.4719 57.6621 41.4688H44.875V48.2812H57.6621C60.2165 48.2866 62.7391 47.715 65.0417 46.6092C67.3443 45.5033 69.3674 43.8916 70.9601 41.8945C72.2832 40.2417 74.0871 39.0406 76.1225 38.4574C78.1578 37.8741 80.324 37.9375 82.3218 38.6386C84.3195 39.3398 86.0502 40.6443 87.2745 42.3716C88.4988 44.099 89.1564 46.164 89.1562 48.2812H95.9688C95.9633 43.7659 94.1673 39.4371 90.9744 36.2443C87.7816 33.0515 83.4528 31.2554 78.9375 31.25Z" fill="#F2CC8F"/>
</g>
<defs>
<filter id="filter0_d" x="-6" y="-6" width="129" height="129" filterUnits="userSpaceOnUse" color-interpolation-filters="sRGB">
<feFlood flood-opacity="0" result="BackgroundImageFix"/>
<feColorMatrix in="SourceAlpha" type="matrix" values="0 0 0 0 0 0 0 0 0 0 0 0 0 0 0 0 0 0 127 0"/>
<feOffset/>
<feGaussianBlur stdDeviation="5"/>
<feColorMatrix type="matrix" values="0 0 0 0 0.94902 0 0 0 0 0.8 0 0 0 0 0.560784 0 0 0 0.31 0"/>
<feBlend mode="lighten" in2="BackgroundImageFix" result="effect1_dropShadow"/>
<feBlend mode="normal" in="SourceGraphic" in2="effect1_dropShadow" result="shape"/>
</filter>
</defs>
</svg>
